#!OML:ASF H:\Pregnant\Project 1\Capture day 1\Session 1\femalepreg.ASF
:FULLY-SPECIFIED
:DEGREES
281
root 6.87137 15.6687 24.9398 11.6857 -86.2407 7.64495
lowerback -6.89792 2.47977 1.82353
upperback -14.8136 2.30382 -1.7976
thorax -11.9708 0.413283 -2.96404
lowerneck -11.571 16.1388 15.8757
upperneck 22.2224 24.3547 -18.5178
head 13.9524 10.24 -5.24094
rclavicle -2.27608e-014 -4.77083e-015
rhumerus 87.3903 -73.8267 -40.0486
rradius 24.2881
rwrist 7.16871
rhand -20.5307 -25.8597
rfingers 7.12502
rthumb 5.82746 -55.7596
lclavicle -2.27608e-014 -4.77083e-015
lhumerus 19.2894 68.5206 -22.4737
lradius 27.3148
lwrist 23.1371
lhand -34.2792 -5.39791
lfingers 7.12502
lthumb -7.44909 24.4509
rfemur -28.0262 24.9721 10.334
rtibia 31.0031
rfoot -17.5374 -26.6693
rtoes -11.0442
lfemur 0 0 0
ltibia 0
lfoot 0 0
ltoes 0
282
root 6.87154 15.6686 24.94 11.5001 -86.2676 7.80821
lowerback -6.86589 2.44567 1.84753
upperback -14.8261 2.25394 -1.82269
thorax -12.0069 0.382109 -3.00467
lowerneck -11.479 16.2321 16.0045
upperneck 22.2561 24.4855 -18.5117
head 13.9939 10.3107 -5.2297
rclavicle 2.66868e-014 1.70955e-014
rhumerus 87.8096 -73.8444 -40.6989
rradius 24.3001
rwrist 7.28675
rhand -20.4011 -25.9178
rfingers 7.12502
rthumb 5.95256 -55.8142
lclavicle 2.66868e-014 1.70955e-014
lhumerus 18.6758 68.4349 -23.1268
lradius 27.3138
lwrist 23.2161
lhand -34.2969 -5.30247
lfingers 7.12502
lthumb -7.46612 24.5458
rfemur -28.0142 25.0031 10.3257
rtibia 31.014
rfoot -17.5329 -26.6792
rtoes -11.0536
lfemur 0 0 0
ltibia 0
lfoot 0 0
ltoes 0
283
root 6.87164 15.6684 24.9403 11.299 -86.2933 7.98721
lowerback -6.85446 2.45371 1.85392
upperback -14.8383 2.2628 -1.83232
thorax -12.0275 0.383839 -3.01967
lowerneck -11.3842 16.2768 15.9742
upperneck 22.3015 24.5662 -18.4725
head 13.9987 10.3498 -5.1978
rclavicle -1.14301e-015 5.36719e-015
rhumerus 87.6245 -73.9138 -40.5844
rradius 24.3224
rwrist 7.29277
rhand -20.2917 -26.0157
rfingers 7.12502
rthumb 6.05825 -55.9091
lclavicle -1.14301e-015 5.36719e-015
lhumerus 18.4449 68.485 -23.263
lradius 27.2943
lwrist 23.1545
lhand -34.2817 -5.19688
lfingers 7.12502
lthumb -7.45146 24.6519
rfemur -28.0019 25.0305 10.317
rtibia 31.0255
rfoot -17.5344 -26.6842
rtoes -11.0518
lfemur 0 0 0
ltibia 0
lfoot 0 0
ltoes 0
284
root 6.87159 15.6682 24.9407 11.1152 -86.3196 8.14891
lowerback -6.84374 2.46002 1.85903
upperback -14.8521 2.2692 -1.84032
thorax -12.0498 0.38446 -3.03214
lowerneck -11.2812 16.311 15.8802
upperneck 22.3339 24.6285 -18.393
head 13.9745 10.3815 -5.14635
rclavicle -4.76089e-014 -2.5842e-015
rhumerus 87.4119 -73.9806 -40.4426
rradius 24.3326
rwrist 7.30583
rhand -20.2233 -26.0661
rfingers 7.12502
rthumb 6.12425 -55.9576
lclavicle -4.76089e-014 -2.5842e-015
lhumerus 18.1943 68.5101 -23.4293
lradius 27.2771
lwrist 23.1185
lhand -34.2474 -5.11198
lfingers 7.12502
lthumb -7.41836 24.738
rfemur -27.9901 25.0635 10.3081
rtibia 31.037
rfoot -17.5393 -26.691
rtoes -11.0458
lfemur 0 0 0
ltibia 0
lfoot 0 0
ltoes 0
285
root 6.87147 15.6679 24.9411 10.9183 -86.3459 8.32414
lowerback -6.83407 2.46695 1.86314
upperback -14.8666 2.2762 -1.84955
thorax -12.0723 0.385341 -3.04538
lowerneck -11.1793 16.3372 15.7315
upperneck 22.3602 24.676 -18.2766
head 13.9292 10.4068 -5.0768
rclavicle 1.4064e-014 1.39149e-015
rhumerus 87.1696 -74.0486 -40.2625
rradius 24.3304
rwrist 7.32242
rhand -20.1738 -26.0834
rfingers 7.12502
rthumb 6.17202 -55.9735
lclavicle 1.4064e-014 1.39149e-015
lhumerus 17.9712 68.5331 -23.5734
lradius 27.258
lwrist 23.0805
lhand -34.2136 -5.05888
lfingers 7.12502
lthumb -7.38578 24.7922
rfemur -27.9789 25.0927 10.2989
rtibia 31.0494
rfoot -17.541 -26.6965
rtoes -11.06
lfemur 0 0 0
ltibia 0
lfoot 0 0
ltoes 0
286
root 6.87122 15.6674 24.9415 10.7372 -86.3742 8.48392
lowerback -6.83089 2.48364 1.86688
upperback -14.8779 2.29633 -1.86358
thorax -12.0859 0.392811 -3.06377
lowerneck -11.09 16.3508 15.5027
upperneck 22.3812 24.6998 -18.1055
head 13.8564 10.4208 -4.98049
rclavicle -2.8128e-014 -9.93923e-016
rhumerus 86.9423 -74.1362 -40.0797
rradius 24.3072
rwrist 7.37084
rhand -20.1296 -26.0631
rfingers 7.12502
rthumb 6.2147 -55.952
lclavicle -2.8128e-014 -9.93923e-016
lhumerus 17.8295 68.5669 -23.6289
lradius 27.2332
lwrist 23.0302
lhand -34.1628 -5.0049
lfingers 7.12502
lthumb -7.33673 24.8479
rfemur -27.9691 25.1304 10.2886
rtibia 31.0625
rfoot -17.5459 -26.7065
rtoes -11.0683
lfemur 0 0 0
ltibia 0
lfoot 0 0
ltoes 0
287
root 6.87087 15.6669 24.9419 10.5394 -86.4024 8.66164
lowerback -6.83348 2.50564 1.86876
upperback -14.8876 2.32322 -1.88302
thorax -12.0935 0.403651 -3.08698
lowerneck -11.0083 16.3535 15.2464
upperneck 22.3971 24.7049 -17.9175
head 13.7719 10.4264 -4.87863
rclavicle 1.20265e-014 1.07344e-014
rhumerus 86.6499 -74.2366 -39.8336
rradius 24.2995
rwrist 7.41431
rhand -20.062 -26.1049
rfingers 7.12502
rthumb 6.28 -55.9918
lclavicle 1.20265e-014 1.07344e-014
lhumerus 17.7745 68.6242 -23.6013
lradius 27.2031
lwrist 22.9625
lhand -34.1289 -4.99997
lfingers 7.12502
lthumb -7.304 24.854
rfemur -27.9604 25.1672 10.2764
rtibia 31.0764
rfoot -17.5543 -26.7152
rtoes -11.0776
lfemur 0 0 0
ltibia 0
lfoot 0 0
ltoes 0
288
root 6.87042 15.6664 24.9424 10.337 -86.4302 8.84532
lowerback -6.83909 2.52022 1.86548
upperback -14.897 2.33983 -1.90157
thorax -12.0998 0.41002 -3.10591
lowerneck -10.9378 16.3629 15.0086
upperneck 22.4131 24.7142 -17.7252
head 13.6929 10.4352 -4.77625
rclavicle -1.11816e-014 -9.74045e-015
rhumerus 86.767 -74.316 -40.0441
rradius 24.3098
rwrist 7.55696
rhand -19.9262 -26.268
rfingers 7.12502
rthumb 6.41102 -56.1509
lclavicle -1.11816e-014 -9.74045e-015
lhumerus 17.7212 68.6878 -23.6004
lradius 27.1734
lwrist 22.9002
lhand -34.1486 -5.37983
lfingers 7.12502
lthumb -7.32298 24.4734
rfemur -27.9525 25.2094 10.2622
rtibia 31.09
rfoot -17.5637 -26.729
rtoes -11.0605
lfemur 0 0 0
ltibia 0
lfoot 0 0
ltoes 0
289
root 6.8699 15.6659 24.9427 10.1441 -86.4568 9.02019
lowerback -6.85123 2.53947 1.86117
upperback -14.9035 2.36299 -1.92005
thorax -12.0984 0.420096 -3.12406
lowerneck -10.8771 16.3746 14.8197
upperneck 22.4357 24.7301 -17.5728
head 13.6355 10.4456 -4.69403
rclavicle -3.57812e-014 -9.14409e-015
rhumerus 86.7189 -74.4101 -40.0809
rradius 24.3435
rwrist 7.65369
rhand -19.8118 -26.3884
rfingers 7.12502
rthumb 6.52153 -56.268
lclavicle -3.57812e-014 -9.14409e-015
lhumerus 17.7809 68.8073 -23.4778
lradius 27.1407
lwrist 22.8012
lhand -34.1902 -5.68648
lfingers 7.12502
lthumb -7.36312 24.1654
rfemur -27.9443 25.257 10.2474
rtibia 31.1028
rfoot -17.5767 -26.7474
rtoes -11.0333
lfemur 0 0 0
ltibia 0
lfoot 0 0
ltoes 0
